/* XPM */
static char *_f19dcd129384c9fdbbe876efe005a41fYNr5juDK1wwPe7n[] = {
/* columns rows colors chars-per-pixel */
"48 48 12 1 ",
"  c None",
". c #3F3A18",
"X c #40251E",
"o c #642414",
"O c #325123",
"+ c #5C5524",
"@ c #A7241F",
"# c #812220",
"$ c #E33A34",
"% c #877B30",
"& c #67A200",
"* c #94C51F",
/* pixels */
"                                                ",
"                                                ",
"                                                ",
"                                                ",
"                                                ",
"                                                ",
"         OOOOOOOOOOOO         OOO               ",
"         OOOOOOOOOOOO         OOO               ",
"         OOOOOOOOOOOO         OOO               ",
"         OOO&&&******OOO   OOO***OOO            ",
"         OOO&&&******OOO   OOO***OOO            ",
"         OOO&&&******OOO   OOO***OOO            ",
"            OOO&&&***OOOOOO&&&&&&OOO            ",
"            OOO&&&***OOOOOO&&&&&&OOO            ",
"            OOO&&&***OOOOOO&&&&&&OOO            ",
"            OOOOOO&&&......OOOOOO               ",
"            OOOOOO&&&......OOOOOO               ",
"            OOOOOO&&&......OOOOOO               ",
"            XXXXXX...%%%+++...                  ",
"            XXXXXX...%%%+++...                  ",
"            XXXXXX...%%%+++...                  ",
"         XXXooo###.........###ooo               ",
"         XXXooo###.........###ooo               ",
"         XXXooo###.........###ooo               ",
"      XXXooo######@@@@@@$$$@@@###ooo            ",
"      XXXooo######@@@@@@$$$@@@###ooo            ",
"      XXXooo######@@@@@@$$$@@@###ooo            ",
"      XXXooo###@@@$$$$$$$$$$$$@@@ooo            ",
"      XXXooo###@@@$$$$$$$$$$$$@@@ooo            ",
"      XXXooo###@@@$$$$$$$$$$$$@@@ooo            ",
"      XXXooo###@@@@@@@@@$$$@@@###ooo            ",
"      XXXooo###@@@@@@@@@$$$@@@###ooo            ",
"      XXXooo###@@@@@@@@@$$$@@@###ooo            ",
"      XXXooo######@@@@@@@@@@@@###XXX            ",
"      XXXooo######@@@@@@@@@@@@###XXX            ",
"      XXXooo######@@@@@@@@@@@@###XXX            ",
"      XXXoooooo###############oooXXX            ",
"      XXXoooooo###############oooXXX            ",
"      XXXoooooo###############oooXXX            ",
"         XXXoooooooooXXXooooooXXX               ",
"         XXXoooooooooXXXooooooXXX               ",
"         XXXoooooooooXXXooooooXXX               ",
"            XXXXXXXXX   XXXXXX                  ",
"            XXXXXXXXX   XXXXXX                  ",
"            XXXXXXXXX   XXXXXX                  ",
"                                                ",
"                                                ",
"                                                "
};
