/* XPM */
static char *_642ac41f1ec4fa8a2e1af05cea73063oVluEkaQUboSLH3W[] = {
/* columns rows colors chars-per-pixel */
"336 48 8 1 ",
"  c None",
". c #213038",
"X c #437DA0",
"o c #9A2890",
"O c #4D92BC",
"+ c #D8B78F",
"@ c #FFD7A8",
"# c white",
/* pixels */
"                                                                                                                                                                                                                                                                                                                                                ",
"                                                                                                                                                                                                                                                                                                                                                ",
"                                                                                                                                                                                                                                                                                                                                                ",
"                                                                                                                                                                                                                                                                                                                                                ",
"                                                                                                                                                                                                                                                                                                                                                ",
"                                                                                                                                                                                                                                                                                                                                                ",
"                                                                                                                                                                                                                                                                                                                                                ",
"                                                                                                                                                                                                                                                                                                                                                ",
"            ......................                          ......................                                                                          ......................                          ......................                                                                          ......................              ",
"            ......................                          ......................                                                                          ......................                          ......................                                                                          ......................              ",
"          ....XXXXXX..OOOOOOOOOOOO..                      ....XXXXXX..OOOOOOOOOOOO..                        ......................                        ....XXXXXX..OOOOOOOOOOOO..                      ....XXXXXX..OOOOOOOOOOOO..                        ......................                        ....XXXXXX..OOOOOOOOOOOO..            ",
"          ....XXXXXX..OOOOOOOOOOOO..                      ....XXXXXX..OOOOOOOOOOOO..                        ......................                        ....XXXXXX..OOOOOOOOOOOO..                      ....XXXXXX..OOOOOOOOOOOO..                        ......................                        ....XXXXXX..OOOOOOOOOOOO..            ",
"        ..oo..XX##..##XXOOOOOOOOOOOO..                  ..oo..XX##..##XXOOOOOOOOOOOO..                    ....XXXXXX..OOOOOOOOOOOO..                    ..oo..XX##..##XXOOOOOOOOOOOO..                  ..oo..XX##..##XXOOOOOOOOOOOO..                    ....XXXXXX..OOOOOOOOOOOO..                    ..oo..XX##..##XXOOOOOOOOOOOO..          ",
"        ..oo..XX##..##XXOOOOOOOOOOOO..                  ..oo..XX##..##XXOOOOOOOOOOOO..                    ....XXXXXX..OOOOOOOOOOOO..                    ..oo..XX##..##XXOOOOOOOOOOOO..                  ..oo..XX##..##XXOOOOOOOOOOOO..                    ....XXXXXX..OOOOOOOOOOOO..                    ..oo..XX##..##XXOOOOOOOOOOOO..          ",
"        ..oo..XX##..##XXOO..OOOOOO....                  ..oo..XX##..##XXOO..OOOOOO....                  ..oo..XX##..##XXOOOOOOOOOOOO..                  ..oo..XX##..##XXOO..OOOOOO....                  ..oo..XX##..##XXOO..OOOOOO....                  ..oo..XX##..##XXOOOOOOOOOOOO..                  ..oo..XX##..##XXOO..OOOOOO....          ",
"        ..oo..XX##..##XXOO..OOOOOO....                  ..oo..XX##..##XXOO..OOOOOO....                  ..oo..XX##..##XXOOOOOOOOOOOO..                  ..oo..XX##..##XXOO..OOOOOO....                  ..oo..XX##..##XXOO..OOOOOO....                  ..oo..XX##..##XXOOOOOOOOOOOO..                  ..oo..XX##..##XXOO..OOOOOO....          ",
"        ......XX##..##XXOOOOOOOOOOOO..                  ......XX##..##XXOOOOOOOOOOOO..                  ..oo..XX##..##XXOO..OOOOOO....                  ......XX##..##XXOOOOOOOOOOOO..                  ......XX##..##XXOOOOOOOOOOOO..                  ..oo..XX##..##XXOO..OOOOOO....                  ......XX##..##XXOOOOOOOOOOOO..          ",
"        ......XX##..##XXOOOOOOOOOOOO..                  ......XX##..##XXOOOOOOOOOOOO..                  ..oo..XX##..##XXOO..OOOOOO....                  ......XX##..##XXOOOOOOOOOOOO..                  ......XX##..##XXOOOOOOOOOOOO..                  ..oo..XX##..##XXOO..OOOOOO....                  ......XX##..##XXOOOOOOOOOOOO..          ",
"          ..oo..XXXXXXXXOOOOOOOOOOOO..                    ..oo..XXXXXXXXOOOOOOOOOOOO..                  ......XX##..##XXOOOOOOOOOOOO..                    ..oo..XXXXXXXXOOOOOOOOOOOO..                    ..oo..XXXXXXXXOOOOOOOOOOOO..                  ......XX##..##XXOOOOOOOOOOOO..                    ..oo..XXXXXXXXOOOOOOOOOOOO..          ",
"          ..oo..XXXXXXXXOOOOOOOOOOOO..                    ..oo..XXXXXXXXOOOOOOOOOOOO..                  ......XX##..##XXOOOOOOOOOOOO..                    ..oo..XXXXXXXXOOOOOOOOOOOO..                    ..oo..XXXXXXXXOOOOOOOOOOOO..                  ......XX##..##XXOOOOOOOOOOOO..                    ..oo..XXXXXXXXOOOOOOOOOOOO..          ",
"          ..oo..XXXXXXXXOOOOOOOOOOOO..                    ..oo..XXXXXXXXOOOOOOOOOOOO..                    ..oo..XXXXXXXXOOOOOOOOOOOO..                    ..oo..XXXXXXXXOOOOOOOOOOOO..                    ..oo..XXXXXXXXOOOOOOOOOOOO..                    ..oo..XXXXXXXXOOOOOOOOOOOO..                    ..oo..XXXXXXXXOOOOOOOOOOOO..          ",
"          ..oo..XXXXXXXXOOOOOOOOOOOO..                    ..oo..XXXXXXXXOOOOOOOOOOOO..                    ..oo..XXXXXXXXOOOOOOOOOOOO..                    ..oo..XXXXXXXXOOOOOOOOOOOO..                    ..oo..XXXXXXXXOOOOOOOOOOOO..                    ..oo..XXXXXXXXOOOOOOOOOOOO..                    ..oo..XXXXXXXXOOOOOOOOOOOO..          ",
"          ......XXXXXXXXXXOO..........                    ......XXXXXXXXXXOO..........                    ..oo..XXXXXXXXOOOOOOOOOOOO..                    ......XXXXXXXXXXOO..........                    ......XXXXXXXXXXOO..........                    ..oo..XXXXXXXXOOOOOOOOOOOO..                    ......XXXXXXXXXXOO..........          ",
"          ......XXXXXXXXXXOO..........                    ......XXXXXXXXXXOO..........                    ..oo..XXXXXXXXOOOOOOOOOOOO..                    ......XXXXXXXXXXOO..........                    ......XXXXXXXXXXOO..........                    ..oo..XXXXXXXXOOOOOOOOOOOO..                    ......XXXXXXXXXXOO..........          ",
"              ....XXXXOOOOOOOO..                              ....XXXXOOOOOOOO..                          ......XXXXXXXXXXOO..........                        ....XXXXOOOOOOOO..                              ....XXXXOOOOOOOO..                          ......XXXXXXXXXXOO..........                        ....XXXXOOOOOOOO..                ",
"              ....XXXXOOOOOOOO..                              ....XXXXOOOOOOOO..                          ......XXXXXXXXXXOO..........                        ....XXXXOOOOOOOO..                              ....XXXXOOOOOOOO..                          ......XXXXXXXXXXOO..........                        ....XXXXOOOOOOOO..                ",
"                ..XX++@@@@@@@@..                                ..XX++@@@@@@@@..                              ....XXXXOOOOOOOO..                                ..XX++@@@@@@@@..                                ..XX++@@@@@@@@..                              ....XXXXOOOOOOOO..                                ..XX++@@@@@@@@..                ",
"                ..XX++@@@@@@@@..                                ..XX++@@@@@@@@..                              ....XXXXOOOOOOOO..                                ..XX++@@@@@@@@..                                ..XX++@@@@@@@@..                              ....XXXXOOOOOOOO..                                ..XX++@@@@@@@@..                ",
"            ......XX++@@@@@@@@..                            ......XX++@@@@@@@@..                                ..XX++@@@@@@@@..                            ......XX++@@@@@@@@..                            ......XX++@@@@@@@@..                                ..XX++@@@@@@@@..                            ......XX++@@@@@@@@..                ",
"            ......XX++@@@@@@@@..                            ......XX++@@@@@@@@..                                ..XX++@@@@@@@@..                            ......XX++@@@@@@@@..                            ......XX++@@@@@@@@..                                ..XX++@@@@@@@@..                            ......XX++@@@@@@@@..                ",
"            ..OOOOXX++@@@@@@@@..                            ..OOOOXX++@@@@@@@@..                                ..XX++@@@@@@@@..                            ..OOOOXX++@@@@@@@@....                          ..OOOOXX++@@@@@@@@..                                ..XX++@@@@@@@@..                            ..OOOOXX....@@@@@@..                ",
"            ..OOOOXX++@@@@@@@@..                            ..OOOOXX++@@@@@@@@..                                ..XX++@@@@@@@@..                            ..OOOOXX++@@@@@@@@....                          ..OOOOXX++@@@@@@@@..                                ..XX++@@@@@@@@..                            ..OOOOXX....@@@@@@..                ",
"            ....XXXXXXOO++++OO..                            ....XXXXXX..++++OO..                            ....OOXX++..@@@@@@..                            ....XXXXXXOO++++OOOO..                          ....XXXXXXOO++++OO..                            ....OOXX++@@@@@@@@..                            ....XXXXOOOO..++OO..                ",
"            ....XXXXXXOO++++OO..                            ....XXXXXX..++++OO..                            ....OOXX++..@@@@@@..                            ....XXXXXXOO++++OOOO..                          ....XXXXXXOO++++OO..                            ....OOXX++@@@@@@@@..                            ....XXXXOOOO..++OO..                ",
"              ....XXOOOOOOOOOO..                              ....XXOOOO..OOOO..                            ..OOXXXXOOOO..++OO..                              ....XXOOOOOOOOXXXX..                            ....XXOOOOOOOOOOOO..                          ..OOXXXXOO..++++OO....                            ....XXXXXX..OOOO..                ",
"              ....XXOOOOOOOOOO..                              ....XXOOOO..OOOO..                            ..OOXXXXOOOO..++OO..                              ....XXOOOOOOOOXXXX..                            ....XXOOOOOOOOOOOO..                          ..OOXXXXOO..++++OO....                            ....XXXXXX..OOOO..                ",
"                ..XXOO....XXOO..                                  ..XXOO......                              ......XXOOOO..XXOO..                                ..XXOO..........                              ..XXXXOO......XXOO..                          ......XXXX..OOOOOOOO..                                ........OO..                  ",
"                ..XXOO....XXOO..                                  ..XXOO......                              ......XXOOOO..XXOO..                                ..XXOO..........                              ..XXXXOO......XXOO..                          ......XXXX..OOOOOOOO..                                ........OO..                  ",
"                ..XX..  ..XX..                                      ........                                      ..XXOO......                                  ..XX..                                        ........      ......                              ............XXOO..                                    ..XX..                    ",
"                ..XX..  ..XX..                                      ........                                      ..XXOO......                                  ..XX..                                        ........      ......                              ............XXOO..                                    ..XX..                    ",
"                ....    ....                                                                                      ........                                      ....                                                                                                      ......                                      ....                      ",
"                ....    ....                                                                                      ........                                      ....                                                                                                      ......                                      ....                      ",
"                                                                                                                                                                                                                                                                                                                                                ",
"                                                                                                                                                                                                                                                                                                                                                ",
"                                                                                                                                                                                                                                                                                                                                                ",
"                                                                                                                                                                                                                                                                                                                                                ",
"                                                                                                                                                                                                                                                                                                                                                ",
"                                                                                                                                                                                                                                                                                                                                                "
};
