/* XPM */
static char *_ae2162d66d44542efa8a5796f97f8176NZRUYL7jMgg14ME[] = {
/* columns rows colors chars-per-pixel */
"48 48 7 1 ",
"  c None",
". c #201F1F",
"X c #272B2D",
"o c #373838",
"O c #41484A",
"+ c #657376",
"@ c #818277",
/* pixels */
"                                                ",
"                                                ",
"                                                ",
"                                                ",
"                                                ",
"                                                ",
"                                              @@",
"               +++++++++++++++++++++          @@",
"               +++++++++++++++++++++          @@",
"               +++++++++++++++++++++            ",
"            +++XXXXXXXXX...XXXXXXXXX+++         ",
"            +++XXXXXXXXX...XXXXXXXXX+++         ",
"            +++XXXXXXXXX...XXXXXXXXX+++         ",
"         +++...ooooooXXX...XXXoooooo...+++      ",
"         +++...ooooooXXX...XXXoooooo...+++      ",
"         +++...ooooooXXX...XXXoooooo...+++      ",
"      OOO...oooooooooXXX...XXXooooooooo...OOO   ",
"      OOO...oooooooooXXX...XXXooooooooo...OOO   ",
"      OOO...oooooooooXXX...XXXooooooooo...OOO   ",
"      +++...oooooooooXXX...XXXooooooooo...+++   ",
"      +++...oooooooooXXX...XXXooooooooo...+++   ",
"      +++...oooooooooXXX...XXXooooooooo...+++   ",
"      +++...oooooo++++++XXX++++++oooooo...+++   ",
"      +++...oooooo++++++XXX++++++oooooo...+++   ",
"      +++...oooooo++++++XXX++++++oooooo...+++   ",
"      +++...oooooo...............oooooo...+++   ",
"      +++...oooooo...............oooooo...+++   ",
"      +++...oooooo...............oooooo...+++   ",
"      +++...oooooooooXXX...XXXooooooooo...+++   ",
"      +++...oooooooooXXX...XXXooooooooo...+++   ",
"      +++...oooooooooXXX...XXXooooooooo...+++   ",
"      +++...oooooooooXXX...XXXooooooooo...OOO   ",
"      +++...oooooooooXXX...XXXooooooooo...OOO   ",
"      +++...oooooooooXXX...XXXooooooooo...OOO   ",
"      OOO...XXXXXXXXXXXX...XXXXXXXXXXXX...OOO   ",
"      OOO...XXXXXXXXXXXX...XXXXXXXXXXXX...OOO   ",
"      OOO...XXXXXXXXXXXX...XXXXXXXXXXXX...OOO   ",
"      OOOOOOOOOOOOOOOOOOOOOOOOOOOOOOOOOOOOOOO   ",
"      OOOOOOOOOOOOOOOOOOOOOOOOOOOOOOOOOOOOOOO   ",
"      OOOOOOOOOOOOOOOOOOOOOOOOOOOOOOOOOOOOOOO   ",
"                                                ",
"                                                ",
"                                                ",
"                                                ",
"                                                ",
"                                                ",
"                                                ",
"                                                "
};
