/* XPM */
static char *cc8938dd81e14798e7d35cef6c081eedVkd6mm5WaDGK4D6T[] = {
/* columns rows colors chars-per-pixel */
"336 48 9 1 ",
"  c None",
". c #382130",
"X c #AC3232",
"o c #A0437D",
"O c #909A28",
"+ c #BC4D92",
"@ c #8FD8B7",
"# c #A8FFD7",
"$ c white",
/* pixels */
"                                                                                                                                                                                                                                                                                                                                                ",
"                                                                                                                                                                                                                                                                                                                                                ",
"                                                                                                                                                                                                                                                                                                                                                ",
"                                                                                                                                                                                                                                                                                                                                                ",
"                                                                                                                                                                                                                                                                                                                                                ",
"                                                                                                                                                                                                                                                                                                                                                ",
"                                                                                                                                                                                                                                                                                                                                                ",
"                                                                                                                                                                                                                                                                                                                                                ",
"                                                                                                                                                                                                                                                                                                                                                ",
"                                                                                                                                                                                                                                                                                                                                                ",
"                                                                                                                                                                                                                                                                                                                                                ",
"                                                                                                                                                                                                                                                                                                                                                ",
"                                                                  ..........................                                                                      ..........................                      ..........................                                                                      ..........................    ",
"                                                                  ..........................                                                                      ..........................                      ..........................                                                                      ..........................    ",
"                  ..........................                    ....OO..oooooo..++++++++++++..                    ..........................                    ....OO..oooooo..++++++++++++..                  ....OO..oooooo..++++++++++++..                    ..........................                    ....OO..oooooo..++++++++++++..  ",
"                  ..........................                    ....OO..oooooo..++++++++++++..                    ..........................                    ....OO..oooooo..++++++++++++..                  ....OO..oooooo..++++++++++++..                    ..........................                    ....OO..oooooo..++++++++++++..  ",
"                ....OO..oooooo..++++++++++++..                  ..OO....oo$$XX$$oo++++++++++++..                ....OO..oooooo..++++++++++++..                  ..OO....oo$$XX$$oo++++++++++++..                ..OO....oo$$XX$$oo++++++++++++..                ....OO..oooooo..++++++++++++..                  ..OO....oo$$XX$$oo++++++++++++..",
"                ....OO..oooooo..++++++++++++..                  ..OO....oo$$XX$$oo++++++++++++..                ....OO..oooooo..++++++++++++..                  ..OO....oo$$XX$$oo++++++++++++..                ..OO....oo$$XX$$oo++++++++++++..                ....OO..oooooo..++++++++++++..                  ..OO....oo$$XX$$oo++++++++++++..",
"                ..OO....oo$$XX$$oo++++++++++++..                  ..OO..oo$$XX$$oo++..++++++....                ..OO....oo$$XX$$oo++++++++++++..                  ..OO..oo$$XX$$oo++..++++++....                  ..OO..oo$$XX$$oo++..++++++....                ..OO....oo$$XX$$oo++++++++++++..                  ..OO..oo$$XX$$oo++..++++++....",
"                ..OO....oo$$XX$$oo++++++++++++..                  ..OO..oo$$XX$$oo++..++++++....                ..OO....oo$$XX$$oo++++++++++++..                  ..OO..oo$$XX$$oo++..++++++....                  ..OO..oo$$XX$$oo++..++++++....                ..OO....oo$$XX$$oo++++++++++++..                  ..OO..oo$$XX$$oo++..++++++....",
"                  ..OO..oo$$XX$$oo++..++++++....                ..OO....oo$$XX$$oo++++++++++++..                  ..OO..oo$$XX$$oo++..++++++....                ..OO....oo$$XX$$oo++++++++++++..                ..OO....oo$$XX$$oo++++++++++++..                  ..OO..oo$$XX$$oo++..++++++....                ..OO....oo$$XX$$oo++++++++++++..",
"                  ..OO..oo$$XX$$oo++..++++++....                ..OO....oo$$XX$$oo++++++++++++..                  ..OO..oo$$XX$$oo++..++++++....                ..OO....oo$$XX$$oo++++++++++++..                ..OO....oo$$XX$$oo++++++++++++..                  ..OO..oo$$XX$$oo++..++++++....                ..OO....oo$$XX$$oo++++++++++++..",
"                ..OO....oo$$XX$$oo++++++++++++..                ........oooooooooo++++++++++++..                ..OO....oo$$XX$$oo++++++++++++..                ........oooooooooo++++++++++++..                ........oooooooooo++++++++++++..                ..OO....oo$$XX$$oo++++++++++++..                ........oooooooooo++++++++++++..",
"                ..OO....oo$$XX$$oo++++++++++++..                ........oooooooooo++++++++++++..                ..OO....oo$$XX$$oo++++++++++++..                ........oooooooooo++++++++++++..                ........oooooooooo++++++++++++..                ..OO....oo$$XX$$oo++++++++++++..                ........oooooooooo++++++++++++..",
"                ........oooooooooo++++++++++++..                    ....oooooooooo++++++++++++..                ........oooooooooo++++++++++++..                    ....oooooooooo++++++++++++..                    ....oooooooooo++++++++++++..                ........oooooooooo++++++++++++..                    ....oooooooooo++++++++++++..",
"                ........oooooooooo++++++++++++..                    ....oooooooooo++++++++++++..                ........oooooooooo++++++++++++..                    ....oooooooooo++++++++++++..                    ....oooooooooo++++++++++++..                ........oooooooooo++++++++++++..                    ....oooooooooo++++++++++++..",
"                    ....oooooooooo++++++++++++..            ........oo....oooooooo............                      ....oooooooooo++++++++++++..            ........oo....oooooooo............              ........oo....oooooooo............                      ....oooooooooo++++++++++++..            ........oo....oooooooo............  ",
"                    ....oooooooooo++++++++++++..            ........oo....oooooooo............                      ....oooooooooo++++++++++++..            ........oo....oooooooo............              ........oo....oooooooo............                      ....oooooooooo++++++++++++..            ........oo....oooooooo............  ",
"            ........oo....oooooooo............              ..++++oooooo@@########..                        ........oo....oooooooo............              ..++++oooooo@@########..                        ..++++oooooo@@########..                        ........oo....oooooooo............              ..++++oooooo@@########..            ",
"            ........oo....oooooooo............              ..++++oooooo@@########..                        ........oo....oooooooo............              ..++++oooooo@@########..                        ..++++oooooo@@########..                        ........oo....oooooooo............              ..++++oooooo@@########..            ",
"            ..++++oooooo@@########..                          ..oooooo..@@@@@@....                          ..++++oooooo@@########..                          ..oooooo@@@@@@@@++..                            ..oooooo@@@@@@@@....                          ..++++oooooo@@########..                          ..oooo++++..@@@@....              ",
"            ..++++oooooo@@########..                          ..oooooo..@@@@@@....                          ..++++oooooo@@########..                          ..oooooo@@@@@@@@++..                            ..oooooo@@@@@@@@....                          ..++++oooooo@@########..                          ..oooo++++..@@@@....              ",
"              ..oooooo@@@@@@@@++..                              ..oo++++..++++..                              ..oooooo..@@@@@@....                              ..oo++++++++oooo..                              ..oo++++++++++++..                            ..oooooo@@@@@@@@....                              ..oooooo..++++..                ",
"              ..oooooo@@@@@@@@++..                              ..oo++++..++++..                              ..oooooo..@@@@@@....                              ..oo++++++++oooo..                              ..oo++++++++++++..                            ..oooooo@@@@@@@@....                              ..oooooo..++++..                ",
"                ..oo++++++++++..                                  ..oo++......                                  ..oo++++..++++..                                ..oo++..........                              ..oooo++......oo++..                              ..oo++..++++++....                                ........++..                  ",
"                ..oo++++++++++..                                  ..oo++......                                  ..oo++++..++++..                                ..oo++..........                              ..oooo++......oo++..                              ..oo++..++++++....                                ........++..                  ",
"                ..oo++....oo++..                                    ........                                    ..oo++++..oo++..                                ..oo..                                        ........      ......                              ..oooo..++++++++..                                    ..oo..                    ",
"                ..oo++....oo++..                                    ........                                    ..oo++++..oo++..                                ..oo..                                        ........      ......                              ..oooo..++++++++..                                    ..oo..                    ",
"                ..oo..  ..oo..                                                                                    ..oo++......                                  ....                                                                                            ............oo++..                                    ....                      ",
"                ..oo..  ..oo..                                                                                    ..oo++......                                  ....                                                                                            ............oo++..                                    ....                      ",
"                ....    ....                                                                                      ........                                                                                                                                                ......                                                                ",
"                ....    ....                                                                                      ........                                                                                                                                                ......                                                                ",
"                                                                                                                                                                                                                                                                                                                                                ",
"                                                                                                                                                                                                                                                                                                                                                ",
"                                                                                                                                                                                                                                                                                                                                                ",
"                                                                                                                                                                                                                                                                                                                                                ",
"                                                                                                                                                                                                                                                                                                                                                ",
"                                                                                                                                                                                                                                                                                                                                                "
};
