/* XPM */
static char *_ef0116e30f54534ada6cc837aa703cdxDAYaaIc8CIDsMQM[] = {
/* columns rows colors chars-per-pixel */
"48 48 6 1 ",
"  c #342121",
". c #3D2727",
"X c #56342C",
"o c #6D4436",
"O c #7D5547",
"+ c #9F623F",
/* pixels */
"ooooooOOO   OOOoooooo+++...+++ooooooOOO   OOOooo",
"ooooooOOO   OOOoooooo+++...+++ooooooOOO   OOOooo",
"ooooooOOO   OOOoooooo+++...+++ooooooOOO   OOOooo",
"XXXoooOOO...OOOooooooOOO...OOOoooooo+++...OOOooo",
"XXXoooOOO...OOOooooooOOO...OOOoooooo+++...OOOooo",
"XXXoooOOO...OOOooooooOOO...OOOoooooo+++...OOOooo",
"ooooooOOO...+++oooooo+++   OOOXXXoooOOO   OOOooo",
"ooooooOOO...+++oooooo+++   OOOXXXoooOOO   OOOooo",
"ooooooOOO...+++oooooo+++   OOOXXXoooOOO   OOOooo",
"XXXooo+++...+++oooooo+++...+++XXXooo+++   OOOooo",
"XXXooo+++...+++oooooo+++...+++XXXooo+++   OOOooo",
"XXXooo+++...+++oooooo+++...+++XXXooo+++   OOOooo",
"XXXoooOOO   +++oooooo+++...+++oooooo+++...+++ooo",
"XXXoooOOO   +++oooooo+++...+++oooooo+++...+++ooo",
"XXXoooOOO   +++oooooo+++...+++oooooo+++...+++ooo",
"ooooooOOO   OOOoooooo+++...+++oooooo+++...+++ooo",
"ooooooOOO   OOOoooooo+++...+++oooooo+++...+++ooo",
"ooooooOOO   OOOoooooo+++...+++oooooo+++...+++ooo",
"ooooooOOO   +++oooooo+++   +++oooooo+++...+++ooo",
"ooooooOOO   +++oooooo+++   +++oooooo+++...+++ooo",
"ooooooOOO   +++oooooo+++   +++oooooo+++...+++ooo",
"oooooo+++   +++oooooo+++   +++ooooooOOO...+++ooo",
"oooooo+++   +++oooooo+++   +++ooooooOOO...+++ooo",
"oooooo+++   +++oooooo+++   +++ooooooOOO...+++ooo",
"oooooo+++   +++oooooo+++   +++ooooooOOO...+++ooo",
"oooooo+++   +++oooooo+++   +++ooooooOOO...+++ooo",
"oooooo+++   +++oooooo+++   +++ooooooOOO...+++ooo",
"oooooo+++   +++oooooo+++   +++XXXooo+++...+++ooo",
"oooooo+++   +++oooooo+++   +++XXXooo+++...+++ooo",
"oooooo+++   +++oooooo+++   +++XXXooo+++...+++ooo",
"oooooo+++...+++oooooo+++   +++XXXooo+++...OOOooo",
"oooooo+++...+++oooooo+++   +++XXXooo+++...OOOooo",
"oooooo+++...+++oooooo+++   +++XXXooo+++...OOOooo",
"oooooo+++...+++ooooooOOO...+++XXXooo+++...+++ooo",
"oooooo+++...+++ooooooOOO...+++XXXooo+++...+++ooo",
"oooooo+++...+++ooooooOOO...+++XXXooo+++...+++ooo",
"oooooo+++...+++oooooo+++...+++oooXXX+++...+++ooo",
"oooooo+++...+++oooooo+++...+++oooXXX+++...+++ooo",
"oooooo+++...+++oooooo+++...+++oooXXX+++...+++ooo",
"oooooo+++...+++oooooo+++...+++XXXooo+++...+++XXX",
"oooooo+++...+++oooooo+++...+++XXXooo+++...+++XXX",
"oooooo+++...+++oooooo+++...+++XXXooo+++...+++XXX",
"oooooo+++...+++oooooo+++...+++oooooo+++...+++XXX",
"oooooo+++...+++oooooo+++...+++oooooo+++...+++XXX",
"oooooo+++...+++oooooo+++...+++oooooo+++...+++XXX",
"oooooo+++...+++oooooo+++...+++oooooo+++   +++XXX",
"oooooo+++...+++oooooo+++...+++oooooo+++   +++XXX",
"oooooo+++...+++oooooo+++...+++oooooo+++   +++XXX"
};
